<svg xmlns="http://www.w3.org/2000/svg" width="40" height="40" viewBox="0 0 40 40" aria-hidden="true" focusable="false">
  <g fill="none" fill-rule="evenodd">
    <path fill="#2AA8DF" d="M0 40h40V0H0z"/>
    <path d="M33.4415789 11.5436842c-.9731578.431579-2.0189473.7236842-3.1157894.8542105 1.12-.6715789 1.9815789-1.7336842 2.3852631-3.00105259-1.0468421.62157899-2.2073684 1.07368419-3.4436842 1.31684209C28.2768421 9.65842105 26.8668421 9 25.3068421 9c-2.9957895 0-5.4252632 2.4294737-5.4252632 5.4252632 0 .4257894.0484211.8389473.14 1.2357894-4.5078947-.2252631-8.5047368-2.3847368-11.18105258-5.66842102-.46631579.80263162-.73421053 1.73368422-.73421053 2.72789472 0 1.881579.95736842 3.5431579 2.41263161 4.5152632-.8889474-.0273684-1.72526319-.2731579-2.45684214-.6789474v.0684211c0 2.6278947 1.87052632 4.8210526 4.35105264 5.3194736-.4542105.1236843-.9347368.1910527-1.4289474.1910527-.3489473 0-.69-.0347369-1.02052629-.0984211.68999999 2.1557895 2.69315789 3.7231579 5.06684209 3.7684211-1.8552631 1.4547368-4.1942105 2.3221052-6.73789472 2.3221052-.43684211 0-.86842105-.0268421-1.29263158-.0757894 2.40052632 1.5378947 5.2521053 2.4363158 8.3168421 2.4363158 9.9778947 0 15.4342105-8.2647369 15.4342105-15.4347369 0-.2342105-.0063158-.468421-.0152631-.7026316 1.0578947-.7636842 1.9768421-1.7189473 2.7057894-2.8073684" fill="#FEFEFE"/>
  </g>
</svg>